<svg xmlns="http://www.w3.org/2000/svg" width="25.474" height="25.474" viewBox="0 0 25.474 25.474">
  <path id="Icon_material-fitness-center" data-name="Icon material-fitness-center" d="M26.653,19.38l1.821-1.821-1.821-1.821-4.547,4.547L11.19,9.369l4.547-4.547L13.916,3,12.094,4.821,10.273,3,7.547,5.726,5.726,3.9,3.9,5.726,5.726,7.547,3,10.273l1.821,1.821L3,13.916l1.821,1.821L9.369,11.19,20.284,22.105l-4.547,4.547,1.821,1.821,1.821-1.821L21.2,28.474l2.726-2.726,1.821,1.821,1.821-1.821-1.821-1.821L28.474,21.2Z" transform="translate(-3 -3)" fill="#20639b"/>
</svg>
