<svg xmlns="http://www.w3.org/2000/svg" xmlns:xlink="http://www.w3.org/1999/xlink" width="96" height="95" viewBox="0 0 96 95">
  <defs>
    <filter id="Rectangle_64" x="0" y="0" width="96" height="95" filterUnits="userSpaceOnUse">
      <feOffset dy="3" input="SourceAlpha"/>
      <feGaussianBlur stdDeviation="3" result="blur"/>
      <feFlood flood-opacity="0.161"/>
      <feComposite operator="in" in2="blur"/>
      <feComposite in="SourceGraphic"/>
    </filter>
  </defs>
  <g id="Group_4" data-name="Group 4" transform="translate(-139.5 -711)">
    <g transform="matrix(1, 0, 0, 1, 139.5, 711)" filter="url(#Rectangle_64)">
      <g id="Rectangle_64-2" data-name="Rectangle 64" transform="translate(9 6)" fill="#fff" stroke="#707070" stroke-width="1">
        <rect width="78" height="77" rx="38.5" stroke="none"/>
        <rect x="0.5" y="0.5" width="77" height="76" rx="38" fill="none"/>
      </g>
    </g>
    <path id="Icon_awesome-home" data-name="Icon awesome-home" d="M28.166,13.928,9.644,29.182V45.646a1.607,1.607,0,0,0,1.607,1.607l11.257-.029a1.607,1.607,0,0,0,1.6-1.607V36a1.607,1.607,0,0,1,1.607-1.607h6.429A1.607,1.607,0,0,1,33.752,36V45.61a1.607,1.607,0,0,0,1.607,1.612l11.253.031a1.607,1.607,0,0,0,1.607-1.607V29.171L29.7,13.928A1.225,1.225,0,0,0,28.166,13.928ZM57.422,24.3l-8.4-6.923V3.459a1.205,1.205,0,0,0-1.205-1.205H42.193a1.205,1.205,0,0,0-1.205,1.205v7.294l-8.994-7.4a4.822,4.822,0,0,0-6.128,0L.436,24.3a1.205,1.205,0,0,0-.161,1.7l2.562,3.114a1.205,1.205,0,0,0,1.7.164L28.166,9.809a1.225,1.225,0,0,1,1.537,0L53.333,29.272a1.205,1.205,0,0,0,1.7-.161L57.593,26a1.205,1.205,0,0,0-.171-1.7Z" transform="translate(158.001 728.746)" fill="#20639b"/>
  </g>
</svg>
