<svg xmlns="http://www.w3.org/2000/svg" width="27.072" height="21.052" viewBox="0 0 27.072 21.052">
  <path id="Icon_awesome-home" data-name="Icon awesome-home" d="M13.176,7.715,4.511,14.851v7.7a.752.752,0,0,0,.752.752l5.266-.014a.752.752,0,0,0,.748-.752v-4.5a.752.752,0,0,1,.752-.752h3.008a.752.752,0,0,1,.752.752v4.495a.752.752,0,0,0,.752.754l5.265.015a.752.752,0,0,0,.752-.752V14.846L13.895,7.715A.573.573,0,0,0,13.176,7.715Zm13.687,4.85L22.934,9.327V2.817a.564.564,0,0,0-.564-.564H19.738a.564.564,0,0,0-.564.564V6.23L14.967,2.768a2.256,2.256,0,0,0-2.867,0L.2,12.565a.564.564,0,0,0-.075.794l1.2,1.457a.564.564,0,0,0,.795.077L13.176,5.788a.573.573,0,0,1,.719,0L24.95,14.893a.564.564,0,0,0,.794-.075l1.2-1.457a.564.564,0,0,0-.08-.8Z" transform="translate(0.001 -2.254)" fill="#fff"/>
</svg>
