<svg xmlns="http://www.w3.org/2000/svg" width="20" height="23.333" viewBox="0 0 20 23.333">
  <g id="Icon_ionic-md-stopwatch" data-name="Icon ionic-md-stopwatch" transform="translate(-4.5 -2.25)">
    <path id="Path_13" data-name="Path 13" d="M16.313,21.563h3.375V12.375H16.313Z" transform="translate(-3.5 -3.706)" fill="#20639b"/>
    <g id="Group_1" data-name="Group 1" transform="translate(4.5 2.25)">
      <path id="Path_14" data-name="Path 14" d="M22.4,10.393,24,8.883,22.235,7.218l-1.6,1.51A10.357,10.357,0,0,0,14.5,6.75c-5.523,0-10,4.216-10,9.417s4.477,9.417,10,9.417,10-4.216,10-9.417A9.032,9.032,0,0,0,22.4,10.393ZM20.024,21.369a8.159,8.159,0,0,1-11.049,0,7.057,7.057,0,0,1,0-10.4,8.159,8.159,0,0,1,11.049,0,7.057,7.057,0,0,1,0,10.4Z" transform="translate(-4.5 -2.25)" fill="#20639b"/>
      <path id="Path_15" data-name="Path 15" d="M13.5,2.25h9V5.625h-9Z" transform="translate(-8 -2.25)" fill="#20639b"/>
    </g>
  </g>
</svg>
