<svg xmlns="http://www.w3.org/2000/svg" xmlns:xlink="http://www.w3.org/1999/xlink" width="95" height="95" viewBox="0 0 95 95">
  <defs>
    <filter id="Rectangle_63" x="0" y="0" width="95" height="95" filterUnits="userSpaceOnUse">
      <feOffset dy="3" input="SourceAlpha"/>
      <feGaussianBlur stdDeviation="3" result="blur"/>
      <feFlood flood-opacity="0.161"/>
      <feComposite operator="in" in2="blur"/>
      <feComposite in="SourceGraphic"/>
    </filter>
  </defs>
  <g id="Group_5" data-name="Group 5" transform="translate(-14.5 -709)">
    <g transform="matrix(1, 0, 0, 1, 14.5, 709)" filter="url(#Rectangle_63)">
      <g id="Rectangle_63-2" data-name="Rectangle 63" transform="translate(9 6)" fill="#fff" stroke="#707070" stroke-width="1">
        <rect width="77" height="77" rx="38.5" stroke="none"/>
        <rect x="0.5" y="0.5" width="76" height="76" rx="38" fill="none"/>
      </g>
    </g>
    <path id="Icon_feather-heart" data-name="Icon feather-heart" d="M49.938,8.476a13.575,13.575,0,0,0-19.2,0l-2.616,2.616L25.5,8.476a13.578,13.578,0,1,0-19.2,19.2l2.616,2.616,19.2,19.2,19.2-19.2,2.616-2.616a13.575,13.575,0,0,0,0-19.2Z" transform="translate(34.112 726.464)" fill="none" stroke="#20639b" stroke-linecap="round" stroke-linejoin="round" stroke-width="3"/>
  </g>
</svg>
