<svg xmlns="http://www.w3.org/2000/svg" xmlns:xlink="http://www.w3.org/1999/xlink" width="83" height="83" viewBox="0 0 83 83">
  <defs>
    <filter id="Icon_awesome-arrow-circle-right" x="0" y="0" width="83" height="83" filterUnits="userSpaceOnUse">
      <feOffset input="SourceAlpha"/>
      <feGaussianBlur stdDeviation="3" result="blur"/>
      <feFlood flood-opacity="0.447"/>
      <feComposite operator="in" in2="blur"/>
      <feComposite in="SourceGraphic"/>
    </filter>
  </defs>
  <g id="Group_24" data-name="Group 24" transform="translate(-285 -715)">
    <g transform="matrix(1, 0, 0, 1, 285, 715)" filter="url(#Icon_awesome-arrow-circle-right)">
      <path id="Icon_awesome-arrow-circle-right-2" data-name="Icon awesome-arrow-circle-right" d="M33.063.563a32.5,32.5,0,1,1-32.5,32.5A32.494,32.494,0,0,1,33.063.563ZM29.275,19.381l9.894,9.488H15.24a3.138,3.138,0,0,0-3.145,3.145v2.1a3.138,3.138,0,0,0,3.145,3.145H39.169l-9.894,9.488a3.149,3.149,0,0,0-.052,4.495l1.442,1.428a3.132,3.132,0,0,0,4.443,0L52.5,35.29a3.132,3.132,0,0,0,0-4.443l-17.39-17.4a3.132,3.132,0,0,0-4.443,0l-1.442,1.428A3.164,3.164,0,0,0,29.275,19.381Z" transform="translate(8.44 8.44)" fill="#20639b"/>
    </g>
    <path id="Icon_awesome-arrow-right" data-name="Icon awesome-arrow-right" d="M23.086,8.471l2.4-2.4a2.587,2.587,0,0,1,3.67,0L47.432,24.318a2.587,2.587,0,0,1,0,3.67L29.165,46.221a2.587,2.587,0,0,1-3.67,0l-2.4-2.4a2.6,2.6,0,0,1,.043-3.713l10.432-9.743L9.119,30.49a2.592,2.592,0,0,1-2.6-2.6V24.428a2.592,2.592,0,0,1,2.6-2.6l24.449.1L23.129,12.184A2.582,2.582,0,0,1,23.086,8.471Z" transform="translate(299 730.353)" fill="#fff"/>
  </g>
</svg>
