<svg xmlns="http://www.w3.org/2000/svg" xmlns:xlink="http://www.w3.org/1999/xlink" width="96" height="95" viewBox="0 0 96 95">
  <defs>
    <filter id="Rectangle_50" x="0" y="0" width="96" height="95" filterUnits="userSpaceOnUse">
      <feOffset dy="3" input="SourceAlpha"/>
      <feGaussianBlur stdDeviation="3" result="blur"/>
      <feFlood flood-opacity="0.161"/>
      <feComposite operator="in" in2="blur"/>
      <feComposite in="SourceGraphic"/>
    </filter>
  </defs>
  <g id="Group_3" data-name="Group 3" transform="translate(-267.5 -711)">
    <g transform="matrix(1, 0, 0, 1, 267.5, 711)" filter="url(#Rectangle_50)">
      <g id="Rectangle_50-2" data-name="Rectangle 50" transform="translate(9 6)" fill="#fff" stroke="#707070" stroke-width="1">
        <rect width="78" height="77" rx="38.5" stroke="none"/>
        <rect x="0.5" y="0.5" width="77" height="76" rx="38" fill="none"/>
      </g>
    </g>
    <path id="Icon_ionic-ios-person" data-name="Icon ionic-ios-person" d="M55.975,55.186c-.966-4.306-6.478-6.405-8.383-7.082-2.092-.745-5.07-.921-6.988-1.354a7.07,7.07,0,0,1-3.232-1.5c-.536-.65-.215-6.676-.215-6.676a20.149,20.149,0,0,0,1.529-2.939A38.22,38.22,0,0,0,39.814,30.5s1.1,0,1.489-1.95c.416-2.126,1.073-2.952.992-4.536-.08-1.557-.925-1.517-.925-1.517a23.953,23.953,0,0,0,.912-6.947C42.4,9.984,38.083,4.5,30.264,4.5c-7.927,0-12.151,5.484-12.031,11.05a24.985,24.985,0,0,0,.9,6.947s-.845-.041-.925,1.517c-.08,1.584.577,2.41.992,4.536.376,1.95,1.489,1.95,1.489,1.95a38.219,38.219,0,0,0,1.127,5.132,20.15,20.15,0,0,0,1.529,2.939s.322,6.026-.215,6.676a7.07,7.07,0,0,1-3.232,1.5c-1.918.433-4.9.609-6.988,1.354-1.9.677-7.417,2.776-8.383,7.082A1.08,1.08,0,0,0,5.586,56.5H54.929A1.078,1.078,0,0,0,55.975,55.186Z" transform="translate(287.499 719.5)" fill="#20639b"/>
  </g>
</svg>
