<svg xmlns="http://www.w3.org/2000/svg" xmlns:xlink="http://www.w3.org/1999/xlink" width="83" height="83" viewBox="0 0 83 83">
  <defs>
    <filter id="Icon_awesome-arrow-circle-right" x="0" y="0" width="83" height="83" filterUnits="userSpaceOnUse">
      <feOffset input="SourceAlpha"/>
      <feGaussianBlur stdDeviation="3" result="blur"/>
      <feFlood flood-opacity="0.447"/>
      <feComposite operator="in" in2="blur"/>
      <feComposite in="SourceGraphic"/>
    </filter>
  </defs>
  <g id="Group_18" data-name="Group 18" transform="translate(-5 -718)">
    <g transform="matrix(1, 0, 0, 1, 5, 718)" filter="url(#Icon_awesome-arrow-circle-right)">
      <path id="Icon_awesome-arrow-circle-right-2" data-name="Icon awesome-arrow-circle-right" d="M33.062.563a32.5,32.5,0,1,0,32.5,32.5A32.494,32.494,0,0,0,33.062.563ZM36.85,19.381l-9.894,9.488H50.885a3.138,3.138,0,0,1,3.145,3.145v2.1a3.138,3.138,0,0,1-3.145,3.145H26.956l9.894,9.488a3.149,3.149,0,0,1,.052,4.495l-1.442,1.428a3.132,3.132,0,0,1-4.443,0L13.628,35.29a3.132,3.132,0,0,1,0-4.443l17.39-17.4a3.132,3.132,0,0,1,4.443,0L36.9,14.873A3.164,3.164,0,0,1,36.85,19.381Z" transform="translate(8.44 8.44)" fill="#20639b"/>
    </g>
    <path id="Icon_awesome-arrow-right" data-name="Icon awesome-arrow-right" d="M31.63,8.471l-2.4-2.4a2.587,2.587,0,0,0-3.67,0L7.284,24.318a2.587,2.587,0,0,0,0,3.67L25.551,46.221a2.587,2.587,0,0,0,3.67,0l2.4-2.4A2.6,2.6,0,0,0,31.58,40.1L21.148,30.361,45.6,30.49a2.592,2.592,0,0,0,2.6-2.6V24.428a2.592,2.592,0,0,0-2.6-2.6l-24.449.1,10.439-9.746A2.582,2.582,0,0,0,31.63,8.471Z" transform="translate(19.284 733.353)" fill="#fff"/>
  </g>
</svg>
